<?xml version="1.0" encoding="UTF-8"?>
<svg version="1.1" xmlns="http://www.w3.org/2000/svg" width="960" height="960">
<path d="M0 0 C316.8 0 633.6 0 960 0 C960 316.8 960 633.6 960 960 C643.2 960 326.4 960 0 960 C0 643.2 0 326.4 0 0 Z " fill="#288686" transform="translate(0,0)"/>
<path d="M0 0 C0.77526031 -0.01504074 1.55052063 -0.03008148 2.34927368 -0.045578 C4.89129112 -0.088371 7.43226129 -0.10132905 9.97460938 -0.11010742 C11.76330934 -0.12553048 13.55200566 -0.14138176 15.34069824 -0.15763855 C19.08626839 -0.18603377 22.83147635 -0.19750416 26.57714844 -0.19921875 C31.33409716 -0.20437813 36.08814503 -0.26919364 40.84433746 -0.34950733 C44.54063982 -0.40198896 48.23626675 -0.41277983 51.9329071 -0.41272545 C53.68376839 -0.4192136 55.43464758 -0.4401446 57.18513489 -0.47690773 C73.63223181 -0.79260231 84.67285459 4.53301024 96.75585938 15.53442383 C98.81539122 17.51956494 100.82739551 19.54318183 102.81835938 21.59692383 C103.65109375 22.44383789 104.48382812 23.29075195 105.34179688 24.16333008 C124.94537852 45.00468053 131.56373109 69.24551426 131.13085938 97.25708008 C130.8619489 104.8773308 129.49253454 111.42413623 126.81835938 118.59692383 C126.39425781 119.82024414 125.97015625 121.04356445 125.53320312 122.30395508 C120.3402823 136.68734498 112.60627741 148.77328421 101.81835938 159.59692383 C100.97015625 160.45286133 100.12195313 161.30879883 99.24804688 162.19067383 C88.00348719 173.32676509 75.547599 181.4510759 59.81835938 184.59692383 C59.81835938 218.91692383 59.81835938 253.23692383 59.81835938 288.59692383 C62.45835937 288.92692383 65.09835937 289.25692383 67.81835938 289.59692383 C70.29272461 290.30200195 70.29272461 290.30200195 72.37695312 291.12817383 C73.16634277 291.43924072 73.95573242 291.75030762 74.76904297 292.07080078 C75.58969238 292.40942139 76.4103418 292.74804199 77.25585938 293.09692383 C78.56031006 293.63095825 78.56031006 293.63095825 79.89111328 294.17578125 C106.65031578 305.35753141 126.68209092 321.68822962 141.81835938 346.59692383 C157.41908077 341.29156347 172.96009585 335.86176239 188.41342163 330.14071655 C196.67190441 327.08510593 204.9423623 324.1145092 213.33081055 321.43383789 C217.62775337 320.05121504 221.69329735 318.41449866 225.81835938 316.59692383 C227.20883583 316.02130922 228.60365549 315.45584967 230.00585938 314.90942383 C230.63878906 314.65805664 231.27171875 314.40668945 231.92382812 314.14770508 C233.81835938 313.59692383 233.81835938 313.59692383 237.81835938 313.59692383 C237.79515625 312.58114258 237.77195312 311.56536133 237.74804688 310.51879883 C237.31565805 284.29361617 245.6762419 261.83978847 263.74023438 242.73364258 C264.42601562 242.02852539 265.11179687 241.3234082 265.81835938 240.59692383 C266.69234375 239.6475293 266.69234375 239.6475293 267.58398438 238.67895508 C272.13512593 233.86197582 277.26343676 230.18331576 282.81835938 226.59692383 C283.74777344 225.9962207 284.6771875 225.39551758 285.63476562 224.77661133 C307.76093551 211.16503944 336.64833331 208.80691783 361.81835938 214.59692383 C366.30251255 215.97386542 370.54472898 217.66897027 374.81835938 219.59692383 C375.82640625 220.04036133 376.83445312 220.48379883 377.87304688 220.94067383 C385.61048365 224.55817674 392.17644535 229.25829235 398.81835938 234.59692383 C399.49898437 235.13446289 400.17960938 235.67200195 400.88085938 236.22583008 C408.78312283 242.69933608 415.36870224 250.99970771 420.81835938 259.59692383 C421.30795639 260.36480728 421.79755341 261.13269073 422.30198669 261.92384338 C427.51970272 271.04548584 427.76645221 279.02000185 427.75585938 289.23364258 C427.77010633 290.92455522 427.78551049 292.61545847 427.80200195 294.30635071 C427.82874436 297.83569243 427.83209925 301.36414071 427.8203125 304.89355469 C427.81088827 308.47987961 427.83857937 312.06267194 427.90234375 315.6484375 C428.56651833 353.39778373 428.56651833 353.39778373 416.81835938 366.59692383 C415.71895053 368.10215573 414.62094359 369.60841443 413.52539062 371.11645508 C412.57872707 372.2298287 411.61424382 373.32834671 410.63085938 374.40942383 C410.09243408 375.01214111 409.55400879 375.6148584 408.99926758 376.23583984 C393.98338548 392.56381019 372.4332915 406.02345225 349.81835938 407.59692383 C319.93694259 408.77688557 319.93694259 408.77688557 305.81835938 404.59692383 C304.77292969 404.30688477 303.7275 404.0168457 302.65039062 403.71801758 C283.32113855 397.86289559 265.17042677 384.00133713 254.81835938 366.59692383 C254.81835938 365.93692383 254.81835938 365.27692383 254.81835938 364.59692383 C241.22325943 368.37778258 227.97303137 372.96246611 214.69335938 377.72192383 C212.57437967 378.47750222 210.45523747 379.23262506 208.3359375 379.98730469 C204.13102692 381.48529353 199.92695317 382.98559211 195.72363281 384.48803711 C188.26207131 387.15430457 180.79398825 389.80208212 173.32525635 392.44818115 C170.18710552 393.56033929 167.04961159 394.67434348 163.91210938 395.78833008 C162.91888672 396.14096924 161.92566406 396.4936084 160.90234375 396.85693359 C160.21462891 397.10113037 159.52691406 397.34532715 158.81835938 397.59692383 C158.84454346 398.32991699 158.87072754 399.06291016 158.89770508 399.81811523 C159.59156542 422.34134893 157.26075232 442.03726618 147.81835938 462.59692383 C147.36847656 463.61657227 146.91859375 464.6362207 146.45507812 465.68676758 C143.35049746 472.3419391 139.50396071 478.12112647 134.98144531 483.87841797 C132.49047104 486.88539738 132.49047104 486.88539738 132.04125977 490.57397461 C132.88630046 492.77378838 133.86212214 494.19189916 135.37304688 495.99536133 C135.89979004 496.63231934 136.4265332 497.26927734 136.96923828 497.92553711 C137.82267822 498.93849854 137.82267822 498.93849854 138.69335938 499.97192383 C139.88702234 501.41384242 141.0797147 502.85656501 142.27148438 504.30004883 C142.87025391 505.02256836 143.46902344 505.74508789 144.0859375 506.48950195 C146.58571176 509.53037729 149.0203442 512.61975696 151.44335938 515.72192383 C151.89001953 516.29233398 152.33667969 516.86274414 152.796875 517.45043945 C154.58396519 519.73408727 156.36807352 522.02005689 158.15234375 524.3059082 C163.4952758 531.14642121 168.8903403 537.93656863 174.38085938 544.65942383 C182.1044606 554.12177473 189.52045262 563.80236476 196.81835938 573.59692383 C197.97335937 573.18442383 199.12835937 572.77192383 200.31835938 572.34692383 C202.14937764 571.75636392 203.98307014 571.174074 205.81835938 570.59692383 C207.44257812 570.05745117 207.44257812 570.05745117 209.09960938 569.50708008 C217.65439483 566.98198059 225.64429713 566.2292104 234.56835938 566.22192383 C236.11136719 566.21962769 236.11136719 566.21962769 237.68554688 566.21728516 C260.03832787 566.53706999 281.9678982 573.69288556 298.81835938 588.59692383 C299.66140625 589.30848633 300.50445313 590.02004883 301.37304688 590.75317383 C319.19415044 606.13674043 331.72745075 628.97626993 333.81835938 652.59692383 C335.45550342 681.28351304 329.29677434 707.6418719 309.81835938 729.59692383 C297.77100323 742.95918315 284.75040471 751.55850766 267.81835938 757.59692383 C266.94695313 757.95657227 266.07554687 758.3162207 265.17773438 758.68676758 C257.82467435 761.5232957 249.6306991 762.18924105 241.81835938 762.59692383 C241.17898438 762.63092285 240.53960938 762.66492188 239.88085938 762.69995117 C214.19381092 763.88006977 190.94431676 756.23492869 171.56835938 739.09692383 C169.97601679 737.60649116 168.39221433 736.10686589 166.81835938 734.59692383 C166.10808594 733.93821289 165.3978125 733.27950195 164.66601562 732.60083008 C148.303066 716.99164397 138.39400411 693.62647646 137.49023438 671.18286133 C137.19238843 658.35201889 137.65193568 646.78303235 141.81835938 634.59692383 C142.1921875 633.39165039 142.56601562 632.18637695 142.95117188 630.94458008 C145.32961578 623.69111373 148.38366569 617.54643954 152.65820312 611.21801758 C154.06041096 608.705109 154.06041096 608.705109 153.41210938 606.25317383 C151.10034521 602.40023355 148.28865527 599.07566992 145.38085938 595.65942383 C144.10356251 594.13443261 142.82753611 592.60837644 141.55273438 591.08129883 C140.91916016 590.32397461 140.28558594 589.56665039 139.6328125 588.78637695 C137.07742417 585.70285669 134.59447051 582.56647581 132.13085938 579.40942383 C131.68798584 578.84280029 131.2451123 578.27617676 130.78881836 577.69238281 C129.46393051 575.99498394 128.14107391 574.29601656 126.81835938 572.59692383 C120.52082957 564.52322697 114.14952612 556.51876742 107.67675781 548.5847168 C101.25546707 540.70124704 94.88158597 532.76048382 88.81835938 524.59692383 C84.16158894 526.1280615 79.52181344 527.69374524 74.90820312 529.35083008 C44.33067728 540.18742748 10.19692575 539.60302875 -19.35351562 525.67114258 C-22.19600532 524.25033345 -22.19600532 524.25033345 -25.18164062 525.59692383 C-27.0614477 527.91535256 -28.81969785 530.23761645 -30.55664062 532.65942383 C-34.78621014 538.43551079 -39.12614492 544.07425924 -43.68164062 549.59692383 C-47.98884514 554.83332158 -52.14763772 560.14729457 -56.18164062 565.59692383 C-60.21571591 571.04665086 -64.37610622 576.35907859 -68.68164062 581.59692383 C-73.19845128 587.10596084 -77.62386497 592.67250765 -81.93164062 598.34692383 C-82.44533203 599.0146582 -82.95902344 599.68239258 -83.48828125 600.37036133 C-83.95943359 600.9968457 -84.43058594 601.62333008 -84.91601562 602.26879883 C-85.33077148 602.81632813 -85.74552734 603.36385742 -86.17285156 603.92797852 C-87.34438228 605.86616439 -87.89974772 607.34586993 -88.18164062 609.59692383 C-86.89797069 612.30919417 -85.55903114 614.8239213 -84.05664062 617.40942383 C-72.53123118 638.2114368 -68.21835002 663.00357146 -74.21289062 686.31567383 C-74.53257812 687.39848633 -74.85226562 688.48129883 -75.18164062 689.59692383 C-75.52195312 690.80348633 -75.86226563 692.01004883 -76.21289062 693.25317383 C-83.12842384 715.86883652 -97.11289862 734.80684497 -117.18164062 747.59692383 C-117.77106445 747.9871875 -118.36048828 748.37745117 -118.96777344 748.77954102 C-140.83525311 762.97459785 -166.98041718 765.16184098 -192.18164062 760.59692383 C-216.79231786 755.13916081 -239.57268857 739.71424991 -253.24414062 718.40942383 C-267.31308462 695.537124 -272.46006811 668.09730073 -266.49414062 641.72192383 C-264.75891022 634.7231612 -262.36083091 628.07579848 -259.18164062 621.59692383 C-258.72917969 620.66493164 -258.27671875 619.73293945 -257.81054688 618.77270508 C-254.34482355 612.03849472 -250.08472126 606.34602622 -245.18164062 600.59692383 C-244.62734375 599.90856445 -244.07304687 599.22020508 -243.50195312 598.51098633 C-229.58336849 581.66217335 -208.06092538 569.69521114 -186.37524414 566.79321289 C-181.28078944 566.3373485 -176.16767751 566.36943941 -171.05664062 566.34692383 C-169.909375 566.32629883 -168.76210938 566.30567383 -167.58007812 566.28442383 C-156.91009084 566.23636082 -147.09162126 568.19529092 -137.18164062 572.14379883 C-134.31270132 572.79379289 -132.9600356 572.68107498 -130.18164062 571.59692383 C-127.8711201 569.40953695 -125.98579519 566.93305756 -124.05664062 564.40942383 C-123.48896973 563.68835449 -122.92129883 562.96728516 -122.33642578 562.22436523 C-120.60705175 560.02365106 -118.89440131 557.81057677 -117.18164062 555.59692383 C-116.21465072 554.36767263 -115.24601281 553.13971524 -114.27539062 551.91333008 C-111.56422807 548.484819 -108.8711236 545.04245473 -106.18164062 541.59692383 C-99.93289041 533.59157033 -93.6129795 525.65667299 -87.18066406 517.79785156 C-82.45608345 511.99624104 -77.90520529 506.07000525 -73.40673828 500.09179688 C-72.89675293 499.41673096 -72.38676758 498.74166504 -71.86132812 498.04614258 C-71.19206299 497.15415161 -71.19206299 497.15415161 -70.50927734 496.24414062 C-69.18164063 494.59692383 -69.18164063 494.59692383 -67.50610352 493.00219727 C-66.85049438 492.30658691 -66.85049438 492.30658691 -66.18164062 491.59692383 C-66.4073114 488.21186223 -68.09451013 486.15929772 -70.11914062 483.53442383 C-84.56322231 463.2771183 -93.62650628 439.64575564 -93.36914062 414.72192383 C-93.36849609 413.5127832 -93.36785156 412.30364258 -93.3671875 411.05786133 C-93.32108109 401.83657875 -93.32108109 401.83657875 -92.18164062 397.59692383 C-92.82035095 397.43379196 -93.45906128 397.2706601 -94.11712646 397.10258484 C-101.74170292 395.09603429 -109.14227983 392.62047688 -116.57226562 389.99145508 C-117.84653831 389.54373803 -119.12093501 389.09637377 -120.39544678 388.64933777 C-123.7348291 387.47705529 -127.07261363 386.30029055 -130.41003418 385.12243652 C-133.72884916 383.95190344 -137.04902294 382.78524004 -140.36914062 381.6184082 C-141.67981264 381.15763202 -142.99048159 380.69684713 -144.30114746 380.23605347 C-146.88516673 379.32765699 -149.46924297 378.41942279 -152.05334473 377.51126099 C-158.07950308 375.39302717 -164.10414672 373.2707267 -170.125 371.13745117 C-172.22194744 370.3985177 -174.31894931 369.65973862 -176.41601562 368.92114258 C-177.36945862 368.5812178 -178.32290161 368.24129303 -179.30523682 367.8910675 C-180.17420593 367.5860582 -181.04317505 367.28104889 -181.93847656 366.96679688 C-182.69062439 366.70045944 -183.44277222 366.43412201 -184.2177124 366.15971375 C-186.32179882 365.45918599 -186.32179882 365.45918599 -189.18164062 365.59692383 C-190.91717969 367.65141387 -190.91717969 367.65141387 -192.61914062 370.34692383 C-206.67943282 390.27207379 -226.98304054 402.49572005 -250.9465332 407.13183594 C-267.14082121 409.45997107 -286.83478183 409.42187728 -302.18164062 403.59692383 C-303.39207031 403.14961914 -304.6025 402.70231445 -305.84960938 402.24145508 C-318.04051871 397.36770462 -327.74470852 390.65430839 -337.18164062 381.59692383 C-338.45007813 380.39036133 -338.45007813 380.39036133 -339.74414062 379.15942383 C-340.54851562 378.31379883 -341.35289062 377.46817383 -342.18164062 376.59692383 C-343.16197266 375.62625977 -343.16197266 375.62625977 -344.16210938 374.63598633 C-352.98208743 365.49721389 -361.21544185 353.55624441 -361.40625 340.59375 C-361.41764008 339.88428223 -361.42903015 339.17481445 -361.44076538 338.44384766 C-361.55177838 330.99517677 -361.59892273 323.54551551 -361.64160156 316.09619141 C-361.66377482 312.574204 -361.70538953 309.05329331 -361.76464844 305.53173828 C-361.83634572 301.26169477 -361.8725234 296.99265467 -361.88471985 292.72204018 C-361.89502455 291.10628355 -361.9172159 289.49055124 -361.95231628 287.87514305 C-362.34828703 268.64039863 -353.71370025 255.45083281 -340.57495117 241.58984375 C-322.26250899 222.86386848 -299.51363973 212.68786045 -273.36547852 212.35473633 C-244.22828938 212.28323951 -221.38401345 220.04724578 -200.03710938 240.63989258 C-183.54236692 257.25768839 -172.15130748 280.18054346 -171.91137695 303.84399414 C-171.93986977 307.09972707 -172.03508911 310.3442944 -172.18164062 313.59692383 C-171.09738548 313.79333466 -171.09738548 313.79333466 -169.9912262 313.99371338 C-167.29978064 314.57155949 -164.82238241 315.33344542 -162.22827148 316.24829102 C-161.26253708 316.58707779 -160.29680267 316.92586456 -159.30180359 317.2749176 C-158.26054825 317.64414841 -157.21929291 318.01337921 -156.14648438 318.39379883 C-154.50333 318.97223793 -154.50333 318.97223793 -152.82698059 319.56236267 C-149.25649271 320.82048786 -145.68780293 322.08363072 -142.11914062 323.34692383 C-139.67226371 324.21014009 -137.22532334 325.07317646 -134.77832031 325.93603516 C-118.96187501 331.51975476 -103.16793704 337.16428554 -87.41967773 342.93774414 C-86.72782883 343.19012344 -86.03597992 343.44250275 -85.32316589 343.70252991 C-83.50005967 344.36767704 -81.67819674 345.03622929 -79.85644531 345.70507812 C-77.33534967 346.70235906 -77.33534967 346.70235906 -75.18164062 346.59692383 C-74.09306197 345.03793445 -73.08730395 343.42091739 -72.11914062 341.78442383 C-56.00065608 315.82867861 -31.24017486 298.30679499 -2.24414062 289.28442383 C0.81835937 288.59692383 0.81835937 288.59692383 5.81835938 288.59692383 C5.48835938 254.60692383 5.15835937 220.61692383 4.81835938 185.59692383 C0.52835937 183.94692383 -3.76164062 182.29692383 -8.18164062 180.59692383 C-10.93465093 179.29772241 -13.54656173 178.02369384 -16.18164062 176.53442383 C-17.179375 175.97078125 -17.179375 175.97078125 -18.19726562 175.39575195 C-25.45237962 171.11052718 -31.32926538 165.60347569 -37.18164062 159.59692383 C-37.91769531 158.86989258 -38.65375 158.14286133 -39.41210938 157.39379883 C-57.66074404 138.30740249 -65.71913706 113.28829695 -65.5378418 87.34423828 C-64.94293912 63.83152129 -56.59080942 43.14947325 -41.18164062 25.59692383 C-40.50488281 24.7384082 -39.828125 23.87989258 -39.13085938 22.99536133 C-30.19378472 11.99864021 -14.60339948 -0.00495135 0 0 Z " fill="#74FA4C" transform="translate(447.181640625,19.403076171875)"/>
<path d="M0 0 C0.88429688 0.75023437 1.76859375 1.50046875 2.6796875 2.2734375 C3.41960937 2.89992188 4.15953125 3.52640625 4.921875 4.171875 C16.64907348 14.98645103 23.74147257 30.34200339 24.88671875 46.12695312 C25.54448063 65.98313985 22.84471466 84.27434625 9.3046875 99.7109375 C7.78507591 101.25380845 6.24341804 102.77529968 4.6796875 104.2734375 C3.93203125 105.04042969 3.184375 105.80742187 2.4140625 106.59765625 C-10.60740184 119.29573986 -26.41256846 124.83379041 -44.4519043 124.62109375 C-64.65273125 123.97419062 -80.86833442 117.48410971 -94.9453125 102.75195312 C-104.62393355 92.34468589 -109.5511784 81.9088344 -113.3203125 68.2734375 C-113.4968335 67.64139404 -113.67335449 67.00935059 -113.85522461 66.3581543 C-117.55141482 49.79029695 -112.95239591 31.46042643 -104.3203125 17.2734375 C-94.1378167 2.39470441 -78.56305485 -9.59569755 -60.8828125 -14.0390625 C-39.10054994 -17.69848261 -17.42792907 -13.9146065 0 0 Z " fill="#2A8C8B" transform="translate(524.3203125,375.7265625)"/>
<path d="M0 0 C9.56051081 6.0987134 16.80172003 14.76048089 20.33203125 25.62890625 C22.93195667 38.75016729 22.15773322 51.48282432 15 63 C7.81679729 72.8735408 -1.898284 80.43863799 -14 83 C-28.46199604 84.58908044 -40.41191483 82.1300065 -52 73 C-60.22160311 66.10446191 -65.90404347 56.41645197 -67.30322266 45.67138672 C-67.43571423 43.31383061 -67.46841317 40.98599304 -67.4375 38.625 C-67.42847656 37.79355469 -67.41945313 36.96210937 -67.41015625 36.10546875 C-67.05601311 23.4940379 -61.87634638 13.78671058 -52.90234375 4.9296875 C-38.32499989 -7.29305817 -16.68262563 -9.58959319 0 0 Z " fill="#288786" transform="translate(706,645)"/>
<path d="M0 0 C2.00179921 1.43197097 3.84243659 2.93408371 5.67578125 4.57421875 C6.54203125 5.33734375 7.40828125 6.10046875 8.30078125 6.88671875 C16.6172866 16.29750111 20.25988689 25.39840122 20.11328125 37.94921875 C20.10425781 38.87460449 20.09523438 39.79999023 20.0859375 40.75341797 C19.78037936 52.80811109 15.7701597 61.58046492 7.67578125 70.57421875 C-2.301824 79.83691771 -13.69039648 83.23399132 -27.07861328 83.11767578 C-33.86416375 82.82104809 -39.39469161 80.89370293 -45.32421875 77.57421875 C-46.14535156 77.11660156 -46.96648438 76.65898437 -47.8125 76.1875 C-56.07179809 71.12087176 -61.53067614 64.42581818 -65.32421875 55.57421875 C-65.71609375 54.72859375 -66.10796875 53.88296875 -66.51171875 53.01171875 C-70.31787034 41.59326399 -68.85376271 29.498413 -64.32421875 18.57421875 C-58.64228136 7.78345006 -49.65263871 -0.45351932 -38.1171875 -4.5703125 C-25.65372091 -7.38133123 -11.0336542 -6.76854417 0 0 Z " fill="#37B8B3" transform="translate(806.32421875,291.42578125)"/>
<path d="M0 0 C3.780649 3.59723723 7.19113018 7.02142828 9.6875 11.625 C10.07808594 12.34300781 10.46867188 13.06101562 10.87109375 13.80078125 C15.35096951 23.76811729 15.78957258 36.82120017 12.359375 47.19140625 C7.19561562 60.50358099 -0.80353911 68.42582988 -13.5390625 74.7265625 C-23.65145022 78.54997411 -37.98170162 78.4592194 -48 74.5625 C-60.13740462 68.45960782 -68.85571568 59.37718861 -73.4296875 46.48828125 C-75.98920949 35.28754124 -76.12657821 21.80823758 -70.3125 11.625 C-63.10863313 0.27797654 -53.03667178 -8.11760298 -39.8125 -11.1875 C-24.39693295 -12.01333395 -12.0206277 -10.45349401 0 0 Z " fill="#34AFAB" transform="translate(510.3125,77.375)"/>
<path d="M0 0 C2.00179921 1.43197097 3.84243659 2.93408371 5.67578125 4.57421875 C6.54203125 5.33734375 7.40828125 6.10046875 8.30078125 6.88671875 C11.53918635 10.55122978 14.19309955 14.36386266 16.67578125 18.57421875 C17.30419922 19.63189453 17.30419922 19.63189453 17.9453125 20.7109375 C22.63659784 30.20954703 22.38740526 43.68678346 19.11328125 53.63671875 C13.65097483 65.97465564 4.81743091 75.50084968 -7.703125 80.67578125 C-11.30540752 81.91054277 -14.52854967 82.47470683 -18.32421875 82.57421875 C-19.17757812 82.61289062 -20.0309375 82.6515625 -20.91015625 82.69140625 C-33.80469699 83.01647871 -42.98734451 79.65359323 -53.57421875 72.32421875 C-63.49572001 62.40271749 -67.68215469 52.00932792 -67.88671875 38.13671875 C-67.78941211 25.52998041 -64.14279511 15.76391756 -55.32421875 6.57421875 C-40.3970778 -6.98123898 -17.86322808 -10.9581147 0 0 Z " fill="#1B5B5E" transform="translate(300.32421875,645.42578125)"/>
<path d="M0 0 C9.01457868 6.61168602 14.87878671 14.72620389 18.421875 25.35546875 C19.72909834 39.95334767 19.37067539 53.54836164 9.64355469 65.21069336 C1.15843002 74.73808299 -8.76271148 80.57148929 -21.53125 81.70703125 C-34.17798128 82.30583753 -44.79632697 79.51218247 -54.6484375 71.17578125 C-64.50251219 61.88023711 -68.89435836 51.79301986 -69.70703125 38.19921875 C-70.00655786 26.85714453 -67.00366985 15.43606808 -59.203125 6.85546875 C-42.63399561 -8.43911222 -19.62566047 -12.51879251 0 0 Z " fill="#237677" transform="translate(202.578125,292.64453125)"/>
<path d="M0 0 C13.66570855 -2.17859122 13.66570855 -2.17859122 19 0 C24.72510659 5.39090302 28.29414343 12.68235845 31.78930664 19.63989258 C33.02905471 22.16683967 33.02905471 22.16683967 35 25 C39.55581103 18.64237303 43.87703652 12.16271811 48.06616211 5.56005859 C50.90473564 1.09526436 50.90473564 1.09526436 52 0 C53.41570123 -0.08651611 54.835595 -0.10704904 56.25390625 -0.09765625 C57.0229126 -0.09515869 57.79191895 -0.09266113 58.58422852 -0.09008789 C59.56705811 -0.08098389 60.5498877 -0.07187988 61.5625 -0.0625 C64.676875 -0.041875 67.79125 -0.02125 71 0 C71 12.21 71 24.42 71 37 C65.72 37 60.44 37 55 37 C54.505 26.605 54.505 26.605 54 16 C53.14535156 17.43214844 52.29070312 18.86429688 51.41015625 20.33984375 C50.29434795 22.20577528 49.17845834 24.07165819 48.0625 25.9375 C47.49853516 26.88302734 46.93457031 27.82855469 46.35351562 28.80273438 C45.81533203 29.70185547 45.27714844 30.60097656 44.72265625 31.52734375 C44.22515869 32.35999756 43.72766113 33.19265137 43.21508789 34.05053711 C42 36 42 36 41 37 C36.8272331 37.81903141 33.15328378 37.96953628 29 37 C25.62854323 33.84056576 23.78476803 30.10992848 21.75 26 C21.18410156 24.95070313 20.61820312 23.90140625 20.03515625 22.8203125 C18.64867139 20.23534073 17.31862603 17.62023752 16 15 C15.67 22.26 15.34 29.52 15 37 C10.05 37 5.1 37 0 37 C0 24.79 0 12.58 0 0 Z " fill="#73F84C" transform="translate(412,844)"/>
<path d="M0 0 C3.82336241 4.16071791 6.31770813 8.64464497 6.5625 14.375 C5.77083332 21.5000001 3.42642771 25.56131024 -1.9609375 30.05078125 C-7.66449641 33.81047416 -13.08653289 33.64690102 -19.6875 33.625 C-21.12706055 33.64916992 -21.12706055 33.64916992 -22.59570312 33.67382812 C-29.6226109 33.67862465 -35.55646652 33.08458543 -41.15234375 28.41015625 C-41.70019531 27.73855469 -42.24804688 27.06695313 -42.8125 26.375 C-43.37839844 25.70597656 -43.94429687 25.03695312 -44.52734375 24.34765625 C-47.31892821 20.13195914 -47.50233931 15.25055655 -46.875 10.3125 C-45.22966124 4.93045815 -42.54049708 1.49974495 -37.94921875 -1.6796875 C-26.53652044 -7.22484035 -10.88624624 -6.38975323 0 0 Z " fill="#73F74C" transform="translate(639.875,847.6875)"/>
<path d="M0 0 C4.00141762 2.95714521 5.75768477 6.24566798 7.1640625 10.93359375 C7.88555871 16.67550111 7.41591668 20.99974603 4.1640625 25.93359375 C0.22413773 30.91643978 -3.89859776 32.37572296 -9.8359375 33.93359375 C-11.104375 34.27390625 -11.104375 34.27390625 -12.3984375 34.62109375 C-21.75709653 35.82092183 -31.28441478 34.85855308 -39.140625 29.32421875 C-42.88718649 26.25100241 -44.57871193 23.81011549 -45.24609375 18.94140625 C-45.52482991 12.75203418 -45.28949116 7.60926356 -41.53125 2.51953125 C-38.43785223 -0.37429247 -34.83078762 -1.80148949 -30.8359375 -3.06640625 C-29.92908203 -3.35451172 -29.92908203 -3.35451172 -29.00390625 -3.6484375 C-19.54441937 -5.47215839 -8.43337624 -4.89853556 0 0 Z " fill="#73F74B" transform="translate(218.8359375,847.06640625)"/>
<path d="M0 0 C17.78176054 -1.51334132 17.78176054 -1.51334132 22.39453125 2.28515625 C24.80808575 4.74928678 26.83967274 7.4687213 28.80029297 10.30126953 C30.7678805 13.08728379 32.99209508 15.64062382 35.1875 18.25 C36.445625 19.8175 37.70375 21.385 39 23 C39.33 15.41 39.66 7.82 40 0 C45.28 0 50.56 0 56 0 C56 12.21 56 24.42 56 37 C39.02254851 38.31515469 39.02254851 38.31515469 33.828125 34.9375 C31.28589269 32.087609 29.14190427 29.1603778 27 26 C25.35201671 23.92322106 23.64328908 21.90544784 21.9375 19.875 C21.20402344 18.96492187 20.47054687 18.05484375 19.71484375 17.1171875 C18.17273924 15.13793226 18.17273924 15.13793226 17 14 C16.67 21.59 16.34 29.18 16 37 C10.72 37 5.44 37 0 37 C0 24.79 0 12.58 0 0 Z " fill="#73F74B" transform="translate(232,844)"/>
<path d="M0 0 C5.919375 -0.061875 11.83875 -0.12375 17.9375 -0.1875 C20.71208618 -0.22846802 20.71208618 -0.22846802 23.54272461 -0.27026367 C25.03759105 -0.2790398 26.53246477 -0.28668105 28.02734375 -0.29296875 C29.15662292 -0.3159906 29.15662292 -0.3159906 30.30871582 -0.33947754 C36.36451054 -0.34240446 42.68527566 0.53664154 47.6683197 4.23982239 C50.22477628 6.894375 51.3567162 9.40224543 51.625 13 C51.32055148 17.67418019 49.33029038 19.82108646 46 23 C40.15637859 26.95858224 32.38113008 26.125146 25.625 26.0625 C24.69816406 26.05798828 23.77132812 26.05347656 22.81640625 26.04882812 C20.54424272 26.03711594 18.27211273 26.01918294 16 26 C16 29.63 16 33.26 16 37 C10.72 37 5.44 37 0 37 C0 24.79 0 12.58 0 0 Z " fill="#73F94C" transform="translate(491,844)"/>
<path d="M0 0 C14.19 0 28.38 0 43 0 C43 2.97 43 5.94 43 9 C34.09 9 25.18 9 16 9 C16 10.98 16 12.96 16 15 C23.59 15 31.18 15 39 15 C39 17.31 39 19.62 39 22 C31.41 22 23.82 22 16 22 C16 23.98 16 25.96 16 28 C25.57 28 35.14 28 45 28 C45 30.97 45 33.94 45 37 C30.15 37 15.3 37 0 37 C0 24.79 0 12.58 0 0 Z " fill="#74F94C" transform="translate(296,844)"/>
<path d="M0 0 C14.19 0 28.38 0 43 0 C43 2.97 43 5.94 43 9 C33.76 9 24.52 9 15 9 C15 10.98 15 12.96 15 15 C22.59 15 30.18 15 38 15 C38 17.31 38 19.62 38 22 C30.41 22 22.82 22 15 22 C15 23.98 15 25.96 15 28 C24.9 28 34.8 28 45 28 C45 30.97 45 33.94 45 37 C30.15 37 15.3 37 0 37 C0 24.79 0 12.58 0 0 Z " fill="#74FA4C" transform="translate(754,844)"/>
<path d="M0 0 C13.86 0 27.72 0 42 0 C42 2.97 42 5.94 42 9 C33.09 9 24.18 9 15 9 C15 10.98 15 12.96 15 15 C22.59 15 30.18 15 38 15 C38 17.31 38 19.62 38 22 C30.41 22 22.82 22 15 22 C15 23.98 15 25.96 15 28 C24.57 28 34.14 28 44 28 C44 30.97 44 33.94 44 37 C29.48 37 14.96 37 0 37 C0 24.79 0 12.58 0 0 Z " fill="#75FB4C" transform="translate(703,844)"/>
<path d="M0 0 C13.86 0 27.72 0 42 0 C42 2.97 42 5.94 42 9 C33.09 9 24.18 9 15 9 C15 10.98 15 12.96 15 15 C22.59 15 30.18 15 38 15 C38 17.31 38 19.62 38 22 C30.41 22 22.82 22 15 22 C15 23.98 15 25.96 15 28 C24.57 28 34.14 28 44 28 C44 30.97 44 33.94 44 37 C29.48 37 14.96 37 0 37 C0 24.79 0 12.58 0 0 Z " fill="#75FB4C" transform="translate(361,844)"/>
<path d="M0 0 C5.28 0 10.56 0 16 0 C16 9.24 16 18.48 16 28 C25.24 28 34.48 28 44 28 C44 30.97 44 33.94 44 37 C29.48 37 14.96 37 0 37 C0 24.79 0 12.58 0 0 Z " fill="#73F84C" transform="translate(548,844)"/>
<path d="M0 0 C15.94977578 -1.38026906 15.94977578 -1.38026906 20.9765625 2.00390625 C22.90980267 4.24997983 24.53878933 6.42499939 26 9 C28.70493025 8.63034576 29.762047 8.28494119 31.54296875 6.15234375 C32.35701172 5.05599609 32.35701172 5.05599609 33.1875 3.9375 C36.08516457 0.82929766 38.14418204 -0.24761562 42.30078125 -0.52734375 C46.55207754 -0.58739659 50.7640547 -0.34657734 55 0 C52.14482486 3.58936303 49.41811198 6.74853379 45.7421875 9.50390625 C38.23239483 15.22996029 38.23239483 15.22996029 34.9375 23.77734375 C34.58832672 28.2104964 34.69953059 32.5668448 35 37 C30.05 37 25.1 37 20 37 C20.04382813 35.81664062 20.08765625 34.63328125 20.1328125 33.4140625 C20.31757048 24.19097843 20.31757048 24.19097843 16.98828125 15.82421875 C14.44780429 13.32264649 11.84512395 11.14610643 9 9 C7.47051591 7.67659899 5.9487201 6.34421933 4.4375 5 C3.79683594 4.46375 3.15617188 3.9275 2.49609375 3.375 C1 2 1 2 0 0 Z " fill="#74F94C" transform="translate(642,844)"/>
<path d="M0 0 C3.58552881 1.63687185 4.79315055 2.68972583 7 6 C7.55260971 10.26298919 7.48867576 12.27486823 5.0625 15.875 C1.08628539 18.63400605 -2.19117743 19.31418804 -7 19 C-10.670261 17.43818681 -11.7727373 16.34089404 -14 13 C-14.46797583 8.78821757 -14.46565795 6.71400886 -12.125 3.125 C-8.47601461 -0.52398539 -4.97238645 -0.54400389 0 0 Z " fill="#23726D" transform="translate(623,853)"/>
<path d="M0 0 C3.58552881 1.63687185 4.79315055 2.68972583 7 6 C7.4375 9.375 7.4375 9.375 7 13 C4.8272578 15.63016161 3.05326212 17.47336894 0 19 C-4.99220285 19.37677003 -7.98020143 19.07396361 -12 16 C-13.74465448 12.51069104 -13.56450552 8.80713023 -13 5 C-9.56793682 -0.25534675 -5.88817208 -1.10850203 0 0 Z " fill="#154444" transform="translate(203,853)"/>
<path d="M0 0 C2.79192205 -0.05380578 5.5828141 -0.09357669 8.375 -0.125 C9.1690625 -0.14175781 9.963125 -0.15851562 10.78125 -0.17578125 C12.85492015 -0.19335473 14.92883241 -0.10335168 17 0 C17.66 0.66 18.32 1.32 19 2 C18.625 4.625 18.625 4.625 18 7 C14.38132441 8.2062252 11.07493749 8.10816918 7.3125 8.0625 C6.61060547 8.05798828 5.90871094 8.05347656 5.18554688 8.04882812 C3.45699462 8.03706927 1.72848635 8.01913454 0 8 C0 5.36 0 2.72 0 0 Z " fill="#1F6564" transform="translate(507,853)"/>
</svg>
