<?xml version="1.0" encoding="UTF-8"?>
<svg version="1.1" xmlns="http://www.w3.org/2000/svg" width="634" height="602">
<path d="M0 0 C209.22 0 418.44 0 634 0 C634 198.66 634 397.32 634 602 C424.78 602 215.56 602 0 602 C0 403.34 0 204.68 0 0 Z " fill="#FEFEFE" transform="translate(0,0)"/>
<path d="M0 0 C3.63 0 7.26 0 11 0 C14.42857143 9.57142857 14.42857143 9.57142857 14 14 C14.66 14 15.32 14 16 14 C16.12375 12.80375 16.2475 11.6075 16.375 10.375 C16.82325054 6.72403187 17.70446837 3.45475101 19 0 C22.63 0 26.26 0 30 0 C30 8.25 30 16.5 30 25 C27.69 25 25.38 25 23 25 C22.67 21.04 22.34 17.08 22 13 C20.68 16.96 19.36 20.92 18 25 C16.02 25 14.04 25 12 25 C10.68 20.71 9.36 16.42 8 12 C7.67 16.29 7.34 20.58 7 25 C4.69 25 2.38 25 0 25 C0 16.75 0 8.5 0 0 Z " fill="#1B1D1F" transform="translate(275,297)"/>
<path d="M0 0 C5.50803871 0.03156469 8.40093334 1.40093334 12.3125 5.3125 C13.65935415 16.86789639 13.65935415 16.86789639 11.06640625 21.57421875 C7.9624051 24.53484802 5.01144419 25.68942017 0.75 26 C-4.12789884 25.67480674 -6.37249001 23.79326049 -9.6875 20.3125 C-11.78182921 16.12384157 -11.2516284 10.86192254 -10.6875 6.3125 C-9.26538284 3.85844945 -8.05366723 2.98613048 -5.6875 1.3125 C-4.05640633 -0.31859367 -2.24562778 0.06377717 0 0 Z " fill="#181A1D" transform="translate(354.6875,296.6875)"/>
<path d="M0 0 C3.11136437 1.31921849 5.45172016 2.90344031 7 6 C7.12257461 7.95549256 7.17552388 9.91570618 7.1875 11.875 C7.20167969 12.92429687 7.21585938 13.97359375 7.23046875 15.0546875 C7.00181492 17.97680594 6.57601834 19.56433529 5 22 C1.32554153 25.11772233 -2.10801221 25.57389026 -6.77734375 25.42578125 C-10.62277425 24.68913463 -12.35774131 22.8404281 -15 20 C-16.75357726 14.73926821 -16.92263539 9.10888089 -14.6875 4 C-10.53400836 -0.92265676 -6.00466675 -0.7832174 0 0 Z " fill="#191B1E" transform="translate(198,297)"/>
<path d="M0 0 C2.64 0 5.28 0 8 0 C10.3125 2.40625 10.3125 2.40625 12 5.5 C12.5775 6.5209375 13.155 7.541875 13.75 8.59375 C14.1625 9.3878125 14.575 10.181875 15 11 C15.33 7.37 15.66 3.74 16 0 C18.31 0 20.62 0 23 0 C23 8.25 23 16.5 23 25 C20.36 25 17.72 25 15 25 C14.0204042 23.20856793 13.0413367 21.41684696 12.0625 19.625 C11.51722656 18.62726563 10.97195312 17.62953125 10.41015625 16.6015625 C9.5850241 15.07929654 8.77435609 13.54871217 8 12 C7.67 16.29 7.34 20.58 7 25 C4.69 25 2.38 25 0 25 C0 16.75 0 8.5 0 0 Z " fill="#16181B" transform="translate(207,297)"/>
<path d="M0 0 C3.83625 -0.12375 3.83625 -0.12375 7.75 -0.25 C8.54889648 -0.28641602 9.34779297 -0.32283203 10.17089844 -0.36035156 C13.6365625 -0.41447528 15.63156008 -0.26283982 18.48046875 1.76953125 C20.33719688 4.49495995 20.63140416 6.74834763 20.44140625 10.02734375 C19.63808488 13.61740829 17.99380345 15.00413103 15 17 C12.19269313 17.39956124 9.85846006 17.24224238 7 17 C7 19.64 7 22.28 7 25 C4.69 25 2.38 25 0 25 C0 16.75 0 8.5 0 0 Z " fill="#191A1D" transform="translate(306,297)"/>
<path d="M0 0 C5.94 0 11.88 0 18 0 C18 1.65 18 3.3 18 5 C14.37 5 10.74 5 7 5 C7 6.32 7 7.64 7 9 C10.3 9 13.6 9 17 9 C17 10.98 17 12.96 17 15 C13.7 15 10.4 15 7 15 C7 16.32 7 17.64 7 19 C10.63 19 14.26 19 18 19 C18 20.98 18 22.96 18 25 C12.06 25 6.12 25 0 25 C0 16.75 0 8.5 0 0 Z " fill="#1C1E21" transform="translate(411,297)"/>
<path d="M0 0 C5.94 0 11.88 0 18 0 C18 1.65 18 3.3 18 5 C14.37 5 10.74 5 7 5 C7 6.32 7 7.64 7 9 C10.3 9 13.6 9 17 9 C17 10.98 17 12.96 17 15 C13.7 15 10.4 15 7 15 C7 16.32 7 17.64 7 19 C10.63 19 14.26 19 18 19 C18 20.98 18 22.96 18 25 C12.06 25 6.12 25 0 25 C0 16.75 0 8.5 0 0 Z " fill="#1E2023" transform="translate(392,297)"/>
<path d="M0 0 C5.94 0 11.88 0 18 0 C18 1.65 18 3.3 18 5 C14.37 5 10.74 5 7 5 C7 6.32 7 7.64 7 9 C10.3 9 13.6 9 17 9 C17 10.98 17 12.96 17 15 C13.7 15 10.4 15 7 15 C7 16.32 7 17.64 7 19 C10.63 19 14.26 19 18 19 C18 20.98 18 22.96 18 25 C12.06 25 6.12 25 0 25 C0 16.75 0 8.5 0 0 Z " fill="#1B1D20" transform="translate(256,297)"/>
<path d="M0 0 C5.61 0 11.22 0 17 0 C17 1.65 17 3.3 17 5 C13.37 5 9.74 5 6 5 C6 6.65 6 8.3 6 10 C9.3 10 12.6 10 16 10 C16 11.32 16 12.64 16 14 C12.7 14 9.4 14 6 14 C6 15.98 6 17.96 6 20 C9.63 20 13.26 20 17 20 C17 21.65 17 23.3 17 25 C11.39 25 5.78 25 0 25 C0 16.75 0 8.5 0 0 Z " fill="#101215" transform="translate(232,297)"/>
<path d="M0 0 C2.64 0 5.28 0 8 0 C11 5.75 11 5.75 11 8 C11.66 8 12.32 8 13 8 C13.309375 7.05125 13.61875 6.1025 13.9375 5.125 C15 2 15 2 16 0 C18.64 0 21.28 0 24 0 C22.85657478 2.31371943 21.71038936 4.62599677 20.5625 6.9375 C20.23701172 7.59685547 19.91152344 8.25621094 19.57617188 8.93554688 C17.11328125 13.88671875 17.11328125 13.88671875 16 15 C15.76712992 16.68183948 15.58735834 18.3712416 15.4375 20.0625 C15.35371094 20.98160156 15.26992188 21.90070313 15.18359375 22.84765625 C15.12300781 23.55792969 15.06242187 24.26820313 15 25 C12.69 25 10.38 25 8 25 C8.00902344 24.34515625 8.01804687 23.6903125 8.02734375 23.015625 C7.78331818 15.50388143 5.55346439 10.71149721 1.49609375 4.43359375 C0 2 0 2 0 0 Z " fill="#1B1D20" transform="translate(367,297)"/>
<path d="M0 0 C2.31 0 4.62 0 7 0 C7 6.27 7 12.54 7 19 C10.3 19 13.6 19 17 19 C17 20.98 17 22.96 17 25 C11.39 25 5.78 25 0 25 C0 16.75 0 8.5 0 0 Z " fill="#1C1E21" transform="translate(327,297)"/>
<path d="M0 0 C0.33 0 0.66 0 1 0 C1 8.25 1 16.5 1 25 C0.67 25 0.34 25 0 25 C0 23.02 0 21.04 0 19 C-3.63 19 -7.26 19 -11 19 C-11 17.68 -11 16.36 -11 15 C-7.7 15 -4.4 15 -1 15 C-1 13.02 -1 11.04 -1 9 C-4.3 9 -7.6 9 -11 9 C-11 7.68 -11 6.36 -11 5 C-7.37 5 -3.74 5 0 5 C0 3.35 0 1.7 0 0 Z " fill="#E7E7E8" transform="translate(274,297)"/>
<path d="M0 0 C2.4375 0.8125 2.4375 0.8125 4.4375 2.8125 C4.99755895 9.86924282 4.99755895 9.86924282 3.25 12.8125 C0.81363976 14.15669875 -0.82223747 14.16381571 -3.5625 13.8125 C-5.97736943 11.39763057 -5.8586925 10.68542211 -5.875 7.375 C-5.89175781 6.59253906 -5.90851563 5.81007813 -5.92578125 5.00390625 C-5.31086501 1.29457278 -3.76394927 -0.27541092 0 0 Z " fill="#EFEFF0" transform="translate(356.5625,302.1875)"/>
<path d="M0 0 C3 0.25 3 0.25 5 2.25 C5.33555022 5.87394236 5.42078956 8.38627406 3.8125 11.6875 C2 13.25 2 13.25 -0.5625 13.625 C-3 13.25 -3 13.25 -5 11.25 C-5.265625 9.15625 -5.265625 9.15625 -5.25 6.75 C-5.25515625 5.9559375 -5.2603125 5.161875 -5.265625 4.34375 C-4.80957894 0.74903399 -3.45860435 0.28821703 0 0 Z " fill="#F3F3F3" transform="translate(194,302.75)"/>
<path d="M0 0 C3.96 0 7.92 0 12 0 C12 2.97 12 5.94 12 9 C11.01 9.495 11.01 9.495 10 10 C10 8.02 10 6.04 10 4 C6.7 4 3.4 4 0 4 C0 2.68 0 1.36 0 0 Z " fill="#F0F0F0" transform="translate(399,302)"/>
<path d="M0 0 C0 1.98 0 3.96 0 6 C-3.96 5.67 -7.92 5.34 -12 5 C-12 3.68 -12 2.36 -12 1 C-10.18755015 0.83278881 -8.37503867 0.66624559 -6.5625 0.5 C-5.55316406 0.4071875 -4.54382813 0.314375 -3.50390625 0.21875 C-1 0 -1 0 0 0 Z " fill="#F7F7F8" transform="translate(411,311)"/>
<path d="M0 0 C2.97 0.495 2.97 0.495 6 1 C6.042721 2.66611905 6.04063832 4.33382885 6 6 C5 7 5 7 2.4375 7.0625 C1.2309375 7.0315625 1.2309375 7.0315625 0 7 C0 4.69 0 2.38 0 0 Z " fill="#E6E6E6" transform="translate(313,302)"/>
<path d="M0 0 C3.63 0 7.26 0 11 0 C11 0.99 11 1.98 11 3 C7.37 3.33 3.74 3.66 0 4 C0 2.68 0 1.36 0 0 Z " fill="#FAFAFA" transform="translate(263,312)"/>
<path d="M0 0 C3.63 0 7.26 0 11 0 C10.67 1.32 10.34 2.64 10 4 C6.7 3.67 3.4 3.34 0 3 C0 2.01 0 1.02 0 0 Z " fill="#FEFEFE" transform="translate(263,303)"/>
</svg>
